<?xml version="1.0" standalone="no"?>
<!DOCTYPE svg PUBLIC "-//W3C//DTD SVG 20010904//EN"
 "http://www.w3.org/TR/2001/REC-SVG-20010904/DTD/svg10.dtd">
<svg version="1.0" xmlns="http://www.w3.org/2000/svg"
 width="569.000000pt" height="439.000000pt" viewBox="0 0 569.000000 439.000000"
 preserveAspectRatio="xMidYMid meet">

<g transform="translate(0.000000,439.000000) scale(0.100000,-0.100000)"
fill="#000000" stroke="none">
<path d="M2700 3975 c-185 -23 -178 -21 -189 -63 -58 -226 -71 -275 -71 -277
0 -1 -35 -15 -77 -30 -43 -15 -115 -45 -160 -66 -45 -21 -87 -39 -92 -39 -6 0
-67 36 -135 80 -69 44 -130 80 -136 80 -15 0 -192 -136 -249 -191 -43 -41
-199 -233 -208 -255 -2 -6 32 -73 76 -148 45 -75 81 -141 81 -147 0 -5 -15
-40 -34 -77 -18 -37 -46 -103 -61 -147 -16 -44 -33 -85 -39 -91 -6 -6 -78 -25
-161 -43 -92 -19 -155 -38 -162 -47 -27 -36 -36 -386 -14 -549 7 -49 13 -91
15 -92 1 -1 76 -22 165 -46 l163 -43 33 -87 c18 -47 48 -119 67 -159 l34 -73
-88 -140 c-48 -76 -88 -144 -88 -150 0 -5 47 -65 105 -132 92 -107 193 -202
317 -296 l36 -28 149 86 149 86 84 -39 c47 -22 117 -49 155 -62 39 -12 73 -25
77 -29 4 -3 23 -78 43 -166 20 -88 37 -160 38 -161 1 -1 75 -9 164 -18 150
-14 175 -14 323 1 l160 17 11 40 c7 23 26 96 44 164 18 68 35 125 37 126 1 1
44 17 93 35 50 19 120 49 157 67 l66 33 143 -89 c119 -75 145 -88 158 -78 168
128 296 254 415 411 l29 37 -86 148 -85 148 38 79 c22 44 51 117 66 162 l27
82 71 16 c39 9 105 23 146 32 41 8 82 19 91 24 12 6 20 37 30 121 17 144 17
274 -1 415 -16 130 9 110 -200 164 -69 17 -130 37 -136 43 -6 6 -23 47 -39 91
-15 44 -43 110 -61 147 -19 37 -34 72 -34 77 0 6 39 71 86 145 l86 135 -68 88
c-87 112 -195 220 -306 306 l-88 68 -144 -85 -145 -85 -93 43 c-51 24 -125 54
-164 66 l-71 23 -33 151 c-18 83 -36 155 -40 159 -8 9 -168 32 -285 40 -38 3
-122 -1 -185 -8z m60 -442 c-1 -16 -39 -53 -54 -53 -19 0 -20 13 -6 41 10 18
60 28 60 12z m253 -85 c20 -10 25 -96 5 -116 -8 -8 -8 -15 0 -25 15 -18 4
-103 -16 -123 -11 -11 -28 -13 -76 -8 -33 4 -62 8 -64 9 -3 2 19 256 23 272 4
14 97 7 128 -9z m-230 -116 c20 -70 37 -133 37 -140 0 -21 -47 -14 -53 9 -8
29 -51 22 -55 -8 -3 -17 -10 -23 -28 -23 -18 0 -24 5 -24 23 0 36 20 241 25
255 2 6 17 12 33 12 28 0 29 -3 65 -128z m-213 79 c0 -13 -11 -23 -35 -31 -36
-12 -39 -19 -29 -57 5 -19 9 -20 35 -11 34 12 59 5 59 -17 0 -9 -12 -18 -30
-22 -17 -3 -33 -9 -36 -14 -3 -5 2 -32 10 -60 17 -58 15 -69 -17 -69 -21 0
-38 44 -94 252 -4 12 7 20 44 31 70 22 93 21 93 -2z m644 1 c27 -9 54 -24 59
-33 13 -21 0 -86 -22 -108 -11 -11 -15 -24 -11 -31 6 -9 -14 -109 -25 -127 0
-1 -11 0 -23 4 -25 6 -28 27 -10 85 10 33 9 41 -3 49 -23 14 -32 5 -47 -50
-14 -47 -17 -52 -41 -49 -14 2 -25 8 -25 13 6 43 79 265 88 264 6 0 33 -8 60
-17z m203 -83 c9 -9 -4 -43 -50 -135 -34 -68 -64 -124 -67 -124 -4 0 -14 6
-23 13 -16 11 -13 22 40 135 56 121 73 138 100 111z m-1143 -166 l98 -102 -27
-13 c-23 -10 -28 -10 -36 5 -15 27 -51 0 -44 -33 4 -18 0 -28 -15 -38 -19 -12
-22 -9 -36 25 -9 21 -34 81 -56 133 l-40 94 22 18 c13 10 26 17 29 16 3 -2 50
-49 105 -105z m1303 77 c39 -23 51 -61 32 -97 -18 -33 -37 -40 -56 -21 -13 14
-13 18 1 40 15 23 15 27 1 38 -20 16 -29 8 -89 -80 -40 -59 -46 -73 -36 -85
12 -14 16 -13 41 11 26 25 29 25 50 11 l22 -16 -36 -36 c-41 -41 -63 -41 -109
3 -38 35 -35 58 13 128 96 138 103 143 166 104z m-1536 -220 c39 -44 77 -80
82 -80 6 0 21 10 34 21 19 19 25 20 38 9 14 -12 11 -18 -27 -57 -23 -23 -45
-43 -49 -43 -3 0 -49 44 -102 97 -90 91 -95 99 -80 115 9 10 20 18 24 18 4 0
40 -36 80 -80z m1658 -83 c-83 -116 -84 -117 -103 -98 -16 17 -17 22 -6 36 11
13 11 19 -4 33 -13 13 -20 14 -35 5 -16 -10 -22 -8 -37 8 -16 18 -17 22 -4 29
8 5 62 40 120 78 l105 69 23 -22 24 -22 -83 -116z m-854 137 c14 -6 10 -13
-21 -45 -21 -22 -46 -39 -56 -39 -17 0 -17 2 3 30 34 45 17 46 -20 0 -17 -22
-38 -40 -46 -40 -20 0 -19 4 10 50 23 36 30 40 60 38 19 -1 37 1 41 5 9 9 8 9
29 1z m59 -35 c-28 -30 -72 -54 -81 -45 -3 3 8 21 24 40 21 27 36 36 57 36
l30 0 -30 -31z m84 22 c10 -6 3 -16 -26 -40 -67 -53 -100 -37 -37 18 38 33 43
35 63 22z m-278 -5 c0 -3 -10 -21 -21 -41 -21 -35 -51 -59 -61 -49 -5 4 14 48
35 82 8 11 47 18 47 8z m-70 -11 c0 -19 -44 -86 -62 -96 -19 -10 -20 -9 -13 7
4 11 10 29 13 42 6 28 62 70 62 47z m430 -2 c0 -15 -90 -65 -106 -59 -23 9 44
65 79 66 15 0 27 -3 27 -7z m34 -49 c-38 -23 -84 -32 -84 -16 0 4 19 20 41 34
33 22 46 25 62 17 18 -10 16 -13 -19 -35z m-540 14 c-15 -49 -23 -64 -38 -77
-9 -8 -19 -12 -21 -9 -9 8 17 83 33 96 24 18 34 15 26 -10z m632 -13 c4 -12
-59 -45 -85 -45 -33 0 -31 13 7 37 37 23 73 27 78 8z m-703 -37 c-14 -42 -38
-76 -47 -67 -9 9 12 92 25 100 31 19 37 10 22 -33z m767 12 c16 -10 15 -11
-23 -28 -32 -14 -87 -16 -87 -4 0 10 59 41 80 41 8 0 22 -3 30 -9z m-825 -25
c-3 -14 -7 -36 -10 -50 -3 -13 -14 -29 -24 -35 -18 -9 -19 -6 -14 33 5 40 27
77 45 77 4 0 6 -11 3 -25z m876 -6 c11 -5 17 -14 14 -19 -8 -12 -91 -24 -112
-15 -14 5 -8 11 27 25 25 10 46 18 48 19 2 1 12 -4 23 -10z m-938 -51 c-3 -24
-14 -52 -24 -63 -19 -19 -19 -19 -19 23 0 49 14 82 34 82 11 0 13 -11 9 -42z
m998 12 c10 -6 19 -14 19 -19 0 -11 -93 -23 -114 -15 -23 9 -20 24 7 24 12 0
29 5 37 10 19 12 27 12 51 0z m-1051 -45 c0 -37 -18 -85 -32 -85 -13 0 -9 95
4 108 20 20 28 14 28 -23z m1117 -12 c6 -18 -80 -28 -108 -12 l-24 13 30 7
c43 10 98 6 102 -8z m-1170 -31 c2 -38 -14 -92 -27 -92 -15 0 -18 84 -3 108
19 32 28 27 30 -16z m1214 -10 l22 -19 -47 -6 c-46 -7 -86 4 -86 23 0 5 17 11
38 13 20 2 40 4 43 5 4 1 17 -6 30 -16z m-1265 -106 c-10 -41 -24 -30 -31 24
-5 36 -3 55 7 67 11 14 14 11 22 -25 5 -22 6 -52 2 -66z m1312 52 c20 -20 14
-28 -23 -28 -37 0 -85 18 -85 32 0 13 95 9 108 -4z m-1353 -58 c6 -47 2 -70
-14 -70 -13 0 -30 83 -20 102 16 30 27 20 34 -32z m740 21 c24 -5 31 -13 40
-49 9 -39 15 -46 57 -64 l47 -20 34 21 c19 12 40 21 46 21 19 0 74 -45 109
-90 l33 -40 -26 -38 -25 -38 19 -49 c17 -44 24 -51 57 -60 63 -16 64 -18 64
-110 0 -92 -1 -94 -64 -110 -33 -9 -40 -16 -56 -57 -17 -46 -17 -47 7 -87 l24
-41 -31 -40 c-17 -21 -48 -52 -68 -69 l-37 -29 -43 25 -42 25 -45 -18 c-39
-16 -47 -25 -56 -59 -15 -56 -31 -65 -115 -65 -82 0 -98 9 -108 64 -6 30 -14
39 -53 56 l-46 20 -44 -25 -45 -25 -39 32 c-42 34 -89 90 -89 107 0 5 9 26 21
45 20 35 20 37 4 81 -15 39 -23 47 -59 57 -57 16 -66 31 -66 111 0 86 9 103
61 112 37 6 43 12 61 54 l20 46 -22 42 c-25 48 -22 59 36 117 59 59 71 62 117
37 l42 -23 46 20 c41 18 47 25 58 65 9 39 15 46 38 50 42 6 104 5 138 -2z
m653 -13 c23 -23 13 -33 -32 -30 -28 3 -51 11 -62 23 -17 18 -16 19 32 19 28
0 55 -5 62 -12z m-1438 -39 c0 -11 4 -28 9 -38 10 -18 4 -61 -8 -61 -3 0 -14
19 -23 41 -13 30 -15 46 -7 60 13 25 29 24 29 -2z m-324 -24 c5 -21 12 -25 43
-25 l36 0 -28 -23 c-25 -20 -27 -25 -18 -50 12 -30 5 -34 -25 -12 -19 12 -24
12 -40 0 -29 -22 -36 -18 -29 14 5 24 2 33 -14 43 -29 18 -26 28 9 28 23 0 31
5 36 25 3 14 10 25 15 25 5 0 11 -11 15 -25z m1780 9 c19 -3 40 -31 31 -40 -5
-6 -91 17 -104 28 -32 26 -12 29 73 12z m328 -9 c5 -20 13 -25 38 -25 l31 0
-22 -24 c-16 -17 -20 -30 -15 -50 7 -29 -2 -32 -30 -11 -16 12 -21 12 -40 0
-30 -22 -37 -18 -25 12 9 25 7 30 -18 50 l-28 23 36 0 c31 0 38 4 43 25 4 14
10 25 15 25 5 0 12 -11 15 -25z m-1812 -60 c16 -42 15 -75 -1 -75 -14 0 -43
78 -36 99 10 32 19 26 37 -24z m1500 15 c18 0 48 -26 48 -42 0 -12 -57 -1 -87
18 -13 8 -23 19 -23 25 0 7 9 9 23 5 12 -3 30 -6 39 -6z m-1532 -70 c36 -71
21 -115 -18 -49 -16 27 -22 48 -18 65 4 13 8 24 11 24 3 0 14 -18 25 -40z
m1562 6 c25 -6 56 -41 45 -52 -13 -13 -107 37 -107 58 0 5 8 7 18 5 9 -3 29
-8 44 -11z m-1584 -76 c22 -38 29 -80 15 -80 -14 1 -53 71 -53 96 0 34 12 30
38 -16z m1611 6 c27 -12 49 -42 39 -51 -10 -10 -86 33 -99 56 -10 19 -9 20 13
14 12 -4 34 -12 47 -19z m-1642 -53 c27 -35 44 -75 39 -89 -9 -23 -66 47 -66
80 0 30 7 33 27 9z m1648 -6 c25 -14 41 -31 43 -45 l4 -23 -41 20 c-22 12 -45
30 -51 40 -20 38 -11 40 45 8z m38 -85 c16 -14 24 -52 11 -52 -17 0 -84 64
-84 81 0 19 1 19 28 2 15 -9 35 -23 45 -31z m-1680 1 c24 -32 36 -73 22 -73
-7 0 -75 67 -75 74 0 11 13 36 19 36 3 -1 18 -17 34 -37z m1703 -95 c3 -11 3
-22 0 -25 -11 -11 -81 53 -84 76 -4 22 -3 22 37 -4 22 -15 43 -36 47 -47z
m-1680 -21 c11 -34 -6 -31 -46 11 -27 27 -38 46 -34 57 6 14 12 11 40 -16 19
-18 37 -41 40 -52z m-338 11 c7 -7 12 -18 12 -25 0 -17 -27 -17 -33 0 -2 6 -8
8 -13 4 -5 -5 3 -18 19 -31 19 -16 27 -31 27 -54 0 -32 -9 -38 -50 -32 -29 4
-42 50 -15 50 8 0 15 -7 15 -15 0 -16 16 -20 24 -6 3 5 -8 22 -24 39 -20 21
-27 37 -23 49 12 33 40 42 61 21z m1984 -22 c28 -26 35 -39 31 -56 -6 -22 -8
-21 -45 18 -35 38 -49 72 -30 72 4 0 24 -15 44 -34z m-2062 14 c0 -5 -9 -10
-20 -10 -11 0 -20 -7 -20 -15 0 -8 9 -15 20 -15 11 0 20 -5 20 -11 0 -6 -9
-13 -20 -16 -11 -3 -20 -14 -20 -24 0 -12 7 -19 20 -19 11 0 20 -4 20 -10 0
-5 -16 -10 -35 -10 l-35 0 0 70 0 70 35 0 c19 0 35 -4 35 -10z m180 0 c0 -5
-4 -10 -10 -10 -6 0 -10 -27 -10 -60 0 -47 -3 -60 -15 -60 -12 0 -15 13 -15
60 0 47 -3 60 -15 60 -8 0 -15 5 -15 10 0 6 18 10 40 10 22 0 40 -4 40 -10z
m227 -50 c14 -17 17 -40 5 -40 -5 0 -26 15 -47 33 -29 25 -37 38 -31 52 6 17
8 16 33 -6 15 -13 33 -31 40 -39z m1922 46 c7 -8 11 -37 9 -68 -3 -50 -5 -53
-31 -56 -18 -2 -29 2 -33 13 -9 22 2 30 21 15 12 -10 15 -10 15 4 0 9 -8 16
-20 16 -17 0 -20 7 -20 39 0 37 8 48 36 50 6 1 17 -5 23 -13z m79 5 c9 -5 12
-26 10 -67 -3 -56 -4 -59 -31 -62 -18 -2 -29 2 -33 13 -8 21 3 32 18 17 16
-16 28 -15 28 2 0 8 -10 16 -22 18 -17 2 -24 11 -26 31 -5 44 24 69 56 48z
m88 -5 c15 -12 16 -17 7 -27 -10 -10 -14 -9 -19 4 -7 19 -24 13 -24 -8 0 -8 6
-12 13 -9 20 7 39 -21 35 -53 -3 -24 -8 -28 -33 -28 -30 0 -30 1 -33 59 -2 41
1 62 10 67 18 12 21 11 44 -5z m-256 -61 c0 -51 -3 -65 -15 -65 -11 0 -15 12
-15 44 0 27 -5 46 -12 49 -17 5 8 37 28 37 11 0 14 -16 14 -65z m-156 -75 c-9
-20 -11 -18 -42 21 -17 24 -32 52 -32 63 0 17 7 14 42 -21 35 -35 40 -45 32
-63z m-1662 15 c4 -5 8 -16 8 -23 0 -10 -12 -7 -42 10 -33 18 -44 30 -46 52
l-4 28 39 -28 c21 -16 41 -33 45 -39z m-202 10 c0 -8 -7 -15 -15 -15 -16 0
-20 12 -8 23 11 12 23 8 23 -8z m1850 -87 c0 -16 -3 -28 -7 -28 -16 1 -65 91
-59 107 10 24 65 -43 66 -79z m-1630 -3 c0 -19 -3 -19 -50 5 -31 16 -40 26
-40 46 l0 25 45 -31 c25 -17 45 -37 45 -45z m1595 -15 c26 -38 27 -41 11 -64
-9 -14 -16 -34 -16 -45 0 -38 -20 -32 -41 12 -13 27 -19 52 -15 63 6 16 10 14
29 -15 11 -19 23 -29 25 -23 2 7 -6 25 -17 41 -21 29 -28 71 -12 71 4 0 21
-18 36 -40z m-1586 -34 c24 -29 6 -34 -39 -13 -30 15 -46 29 -48 44 l-3 22 39
-19 c21 -10 44 -26 51 -34z m25 -67 c28 -27 16 -32 -35 -14 -43 16 -59 29 -59
52 0 16 67 -11 94 -38z m1526 -69 c0 -8 -4 -21 -9 -29 -7 -11 -13 -5 -25 24
-17 39 -21 77 -10 88 8 8 44 -61 44 -83z m-1494 9 c23 -26 16 -30 -36 -18 -43
10 -60 22 -60 45 0 18 75 -4 96 -27z m1464 -74 c0 -7 -6 -18 -14 -24 -11 -9
-16 -5 -25 20 -12 36 -15 82 -4 92 7 7 43 -66 43 -88z m-1794 30 c5 -19 13
-25 35 -25 34 0 38 -15 8 -31 -21 -11 -21 -20 -3 -64 8 -19 7 -19 -19 -2 -33
21 -46 21 -70 0 -18 -17 -19 -17 -12 19 6 31 4 39 -14 50 -29 18 -26 28 9 28
23 0 31 5 36 25 3 14 10 25 15 25 5 0 11 -11 15 -25z m2106 3 c2 -18 11 -24
36 -26 37 -4 40 -12 11 -30 -17 -11 -20 -20 -14 -48 l6 -35 -26 17 c-22 14
-31 15 -46 6 -31 -20 -40 -15 -28 15 9 23 6 29 -18 49 l-28 23 36 1 c31 0 38
4 43 25 8 31 24 33 28 3z m-1750 -9 c30 -16 20 -29 -21 -29 -38 0 -71 19 -71
42 0 11 63 2 92 -13z m1386 -34 c12 -46 2 -92 -17 -80 -12 7 -23 88 -15 108
10 28 19 20 32 -28z m-1340 -27 c21 -17 13 -27 -20 -26 -48 0 -67 7 -79 29
-10 20 -8 20 38 13 26 -3 54 -11 61 -16z m1299 -30 c11 -41 3 -78 -16 -78 -12
0 -23 82 -15 103 10 27 19 20 31 -25z m-1256 -18 c33 -18 21 -30 -29 -30 -36
0 -54 5 -67 20 -18 20 -17 20 29 20 26 0 56 -5 67 -10z m1213 -36 c4 -29 2
-52 -5 -60 -20 -24 -29 -15 -29 30 0 84 23 104 34 30z m-1161 -16 c21 -11 21
-11 2 -19 -48 -19 -115 -5 -115 23 0 12 89 9 113 -4z m1111 -29 c5 -32 3 -46
-10 -60 -26 -28 -33 -23 -28 19 13 94 27 110 38 41z m306 6 c-1 -5 -8 -9 -16
-7 -25 5 -15 -23 16 -46 35 -27 53 -28 48 -4 -2 10 -11 16 -21 14 -9 -2 -17 2
-17 7 0 19 21 22 45 7 22 -14 23 -19 13 -41 -14 -32 -34 -32 -81 0 -38 26 -47
51 -25 73 14 14 40 12 38 -3z m-1686 -27 c8 -14 7 -22 -8 -35 -17 -17 -18 -17
-12 4 4 12 2 24 -4 28 -12 8 -82 -44 -74 -56 9 -15 34 -10 34 6 0 19 16 20 23
1 4 -9 -5 -21 -20 -31 -24 -16 -26 -16 -45 3 -24 24 -17 41 32 77 38 28 57 29
74 3z m1315 -84 c-6 -8 -17 -14 -24 -14 -16 0 -4 82 16 106 13 16 14 12 17
-30 2 -27 -2 -54 -9 -62z m-995 90 c29 -11 17 -21 -35 -28 -49 -7 -79 3 -79
25 0 10 90 12 114 3z m950 -71 c-6 -43 -24 -73 -46 -73 -10 0 1 58 19 93 21
42 33 33 27 -20z m-886 20 c2 -8 -5 -13 -18 -13 -12 0 -30 -5 -41 -11 -16 -8
-26 -6 -47 7 l-27 18 30 7 c44 10 98 6 103 -8z m1273 -22 c24 -21 41 -42 37
-46 -3 -3 -23 -2 -45 4 l-38 10 28 -24 c29 -25 33 -35 17 -35 -14 0 -90 70
-90 82 0 9 21 7 67 -8 13 -4 10 2 -9 20 -16 14 -28 28 -28 31 0 13 21 2 61
-34z m-1621 10 c0 -14 -89 -85 -97 -78 -6 7 76 86 90 87 4 0 7 -4 7 -9z m1176
-32 c-3 -17 -6 -38 -6 -45 0 -13 -38 -39 -46 -32 -5 6 17 81 28 96 19 22 31
13 24 -19z m-762 12 c3 -5 -14 -16 -37 -25 -51 -19 -59 -20 -75 -4 -10 10 -6
15 20 25 40 14 85 16 92 4z m-394 -55 c-25 -41 -20 -45 22 -15 22 16 32 19 41
10 8 -8 0 -23 -33 -56 -46 -47 -71 -44 -29 2 l24 27 -33 -23 c-39 -27 -50 -22
-33 16 13 28 13 28 -8 9 -42 -38 -34 -5 9 39 51 52 75 47 40 -9z m1092 -1
c-13 -40 -46 -75 -58 -62 -5 5 24 77 38 95 6 6 16 12 23 12 9 0 9 -11 -3 -45z
m-632 27 c0 -4 -19 -17 -43 -29 -37 -18 -46 -19 -67 -8 l-24 13 34 15 c38 17
100 22 100 9z m1107 -89 c-10 -9 -98 78 -90 90 3 5 26 -11 51 -37 25 -25 43
-49 39 -53z m-539 38 c-13 -31 -28 -51 -41 -55 -12 -3 -22 -4 -24 -2 -6 5 38
82 54 94 30 22 32 13 11 -37z m-514 30 c8 -12 -55 -51 -82 -51 -36 0 -34 19 5
39 41 22 69 26 77 12z m444 -53 c-15 -27 -31 -44 -45 -46 l-23 -3 25 43 c21
37 52 62 64 52 2 -1 -8 -22 -21 -46z m535 6 c47 -57 47 -68 0 -49 -43 18 -51
15 -23 -10 21 -19 26 -35 11 -35 -14 0 -85 89 -77 97 3 4 22 -1 42 -10 l36
-17 -21 29 c-42 59 -19 55 32 -5z m-907 25 c3 -6 17 -8 29 -5 30 8 41 -9 17
-26 -18 -13 -37 -38 -29 -38 2 0 21 14 42 30 32 26 75 40 75 25 0 -2 -17 -20
-37 -40 -28 -27 -43 -35 -58 -30 -11 4 -33 8 -48 10 -41 4 -44 12 -13 36 40
32 22 36 -22 5 -23 -16 -45 -24 -55 -20 -25 9 -21 17 21 41 41 24 67 29 78 12z
m307 -44 c-19 -34 -31 -45 -49 -45 l-25 0 31 45 c18 26 39 45 50 45 17 0 17
-3 -7 -45z m-788 2 c-18 -61 -17 -63 8 -32 41 49 42 21 1 -34 -43 -57 -57 -56
-44 4 l9 40 -24 -30 c-41 -50 -40 -19 0 34 38 50 61 58 50 18z m675 26 c0 -3
-11 -21 -26 -40 -16 -21 -33 -33 -50 -33 -31 0 -31 4 11 45 31 31 65 46 65 28z
m53 -24 c-22 -39 -60 -66 -74 -52 -12 12 52 83 75 83 16 0 16 -3 -1 -31z m581
-55 c20 -26 33 -51 30 -56 -7 -11 -7 -11 -52 48 -34 44 -38 54 -22 54 5 0 25
-21 44 -46z m-1226 -57 c-21 -58 -38 -74 -38 -36 0 18 -4 20 -27 14 -26 -6
-24 -2 22 44 27 28 53 47 57 43 4 -4 -2 -33 -14 -65z m1182 28 c24 -24 41 -48
37 -51 -4 -4 -13 -2 -20 4 -16 14 -27 6 -27 -20 0 -36 -16 -17 -37 42 -29 86
-19 92 47 25z m-1085 -11 c17 -18 16 -35 -4 -42 -7 -2 -11 3 -9 13 2 10 -3 20
-11 23 -11 4 -12 -2 -7 -24 13 -52 11 -66 -6 -78 -13 -8 -23 -8 -35 0 -24 15
-29 44 -9 44 9 0 16 -7 16 -15 0 -8 5 -15 11 -15 7 0 8 16 3 46 -5 34 -3 48 7
55 20 12 25 11 44 -7z m987 -1 c10 -9 18 -20 18 -26 0 -5 9 -22 20 -37 12 -17
16 -31 11 -35 -6 -3 -18 6 -27 20 -20 31 -42 19 -25 -13 14 -26 14 -32 1 -32
-6 0 -23 25 -38 56 -26 55 -27 56 -8 70 25 18 26 18 48 -3z m-932 -33 c0 -6
-12 -34 -27 -63 -33 -65 -44 -43 -12 24 21 45 39 63 39 39z m850 0 c0 -5 -4
-10 -10 -10 -5 0 0 -21 10 -46 22 -50 24 -64 11 -64 -4 0 -18 23 -29 50 -12
28 -25 50 -29 49 -24 -4 -25 3 -3 16 30 17 50 19 50 5z m-771 -27 c6 -12 3
-33 -8 -63 -13 -37 -22 -46 -44 -48 -17 -2 -29 2 -33 12 -6 16 12 83 29 104
14 18 45 15 56 -5z m651 -18 c16 -20 5 -32 -14 -16 -10 9 -16 9 -21 1 -8 -13
-9 -13 33 -34 34 -18 42 -45 17 -66 -17 -14 -55 -4 -55 16 0 8 5 14 10 14 6 0
10 -4 10 -10 0 -5 7 -10 15 -10 27 0 16 31 -15 41 -37 13 -50 47 -24 66 23 17
29 16 44 -2z m-520 -9 c0 -2 3 -11 6 -19 3 -8 -5 -24 -17 -36 -12 -11 -19 -24
-15 -28 4 -4 11 -1 16 7 14 22 23 5 11 -19 -10 -17 -9 -20 5 -14 12 4 15 2 12
-8 -5 -13 -54 -16 -85 -4 -18 6 -16 40 2 55 8 7 15 20 15 29 0 20 19 41 37 41
7 0 13 -2 13 -4z m436 -17 c19 -22 19 -22 -8 -15 -37 8 -35 -1 5 -35 27 -23
30 -31 21 -46 -15 -24 -52 -29 -60 -8 -4 9 -3 19 1 23 4 4 10 1 12 -5 5 -14
33 -18 33 -5 0 4 -17 22 -37 39 l-38 33 24 20 c28 24 24 24 47 -1z m-288 -11
c15 -15 16 -38 2 -38 -5 0 -10 7 -10 16 0 9 -6 14 -12 12 -16 -5 -24 -98 -9
-98 5 0 14 8 20 17 5 10 13 14 17 10 12 -12 -10 -42 -34 -45 -29 -4 -46 31
-37 77 11 57 36 76 63 49z m206 -40 c10 -60 4 -78 -29 -78 -18 0 -28 7 -35 26
-23 58 -6 108 35 102 15 -2 22 -14 29 -50z m-108 1 c1 -20 4 -48 8 -63 5 -21
3 -27 -6 -24 -7 3 -14 17 -16 31 -4 34 -20 35 -24 2 -6 -51 -23 -29 -26 33
l-3 63 33 -3 c30 -3 33 -6 34 -39z"/>
<path d="M2936 3405 c-13 -36 -7 -57 17 -53 17 2 22 10 22 33 0 33 -28 47 -39
20z"/>
<path d="M2927 3303 c-4 -3 -7 -24 -7 -45 0 -35 2 -39 23 -36 38 5 35 87 -4
88 -3 0 -9 -3 -12 -7z"/>
<path d="M2721 3318 c-1 -36 3 -48 14 -48 8 0 15 1 15 3 0 1 -7 22 -14 47
l-15 45 0 -47z"/>
<path d="M3173 3336 c-9 -30 -8 -35 8 -39 22 -6 38 11 41 44 2 18 -2 25 -18
27 -16 2 -23 -5 -31 -32z"/>
<path d="M2200 3168 c0 -13 34 -78 41 -78 20 0 16 20 -11 51 -16 19 -29 31
-30 27z"/>
<path d="M3647 2983 c-29 -20 -35 -29 -26 -39 9 -11 15 -9 32 14 11 15 25 33
30 40 13 17 8 15 -36 -15z"/>
<path d="M3932 2165 c0 -16 2 -22 5 -12 2 9 2 23 0 30 -3 6 -5 -1 -5 -18z"/>
<path d="M4010 2160 c0 -11 5 -20 10 -20 6 0 10 9 10 20 0 11 -4 20 -10 20 -5
0 -10 -9 -10 -20z"/>
<path d="M4097 2133 c-11 -10 -8 -43 3 -43 6 0 10 11 10 25 0 26 -2 29 -13 18z"/>
<path d="M2245 1270 c-3 -5 -1 -10 4 -10 6 0 11 5 11 10 0 6 -2 10 -4 10 -3 0
-8 -4 -11 -10z"/>
<path d="M3430 1270 c0 -5 5 -10 11 -10 5 0 7 5 4 10 -3 6 -8 10 -11 10 -2 0
-4 -4 -4 -10z"/>
<path d="M3331 1239 c7 -14 14 -18 21 -11 13 13 2 32 -18 32 -12 0 -13 -4 -3
-21z"/>
<path d="M2461 1188 c-21 -57 -22 -68 -8 -68 15 0 37 41 37 70 0 27 -19 25
-29 -2z"/>
<path d="M2610 1154 c0 -8 5 -12 10 -9 6 3 10 10 10 16 0 5 -4 9 -10 9 -5 0
-10 -7 -10 -16z"/>
<path d="M2580 1096 c0 -9 5 -16 10 -16 6 0 10 4 10 9 0 6 -4 13 -10 16 -5 3
-10 -1 -10 -9z"/>
<path d="M2940 1121 c0 -39 9 -61 26 -61 15 0 17 12 8 59 -8 40 -34 41 -34 2z"/>
<path d="M2847 1120 c3 -11 9 -17 14 -14 14 8 10 34 -5 34 -9 0 -12 -7 -9 -20z"/>
</g>
</svg>
